# xmcd
#
# Track frame offsets:
#	150
#	20780
#	42824
#	63491
#	89401
#	110130
#	134015
#	156407
#
# Disc length: 2443 seconds
#
# Revision: 1
# Processed by: cddbd v1.5.1PL0 Copyright (c) Steve Scherf et al.
# Submitted via: CDex 1.50Beta5
#
DISCID=75098908
DTITLE=BEGIN - ビギンの一五一会
DYEAR=1900
DGENRE=Pop
TTITLE0=涙そうそう
TTITLE1=海の唄
TTITLE2=声のおまもりください
TTITLE3=恋しくて
TTITLE4=防波堤で見た景色
TTITLE5=この街はなれて
TTITLE6=その時生まれたもの
TTITLE7=島人ぬ宝
EXTD=
EXTT0=
EXTT1=
EXTT2=
EXTT3=
EXTT4=
EXTT5=
EXTT6=
EXTT7=
PLAYORDER=
